<svg width="1120" height="978" viewBox="0 0 1120 978" fill="none" xmlns="http://www.w3.org/2000/svg">
<g clip-path="url(#clip0_8_24)">
<g filter="url(#filter0_d_8_24)">
<path d="M474.903 939.61C479.002 939.892 481.267 934.304 478.166 931.047L477.858 929.702C477.898 929.594 477.939 929.486 477.98 929.379C482.126 918.534 496.175 918.609 500.285 929.47C503.933 939.109 508.578 948.765 509.721 958.958C510.234 963.457 510.003 968.04 509.093 972.455C517.641 951.97 522.14 929.6 522.14 907.103C522.14 901.451 521.858 895.799 521.281 890.161C520.807 885.549 520.153 880.965 519.307 876.424C514.732 851.875 504.826 828.493 490.537 808.963C483.667 804.843 477.939 798.404 474.479 790.685C473.236 787.901 472.262 784.906 471.8 781.855C472.582 781.967 474.748 768.905 474.158 768.104C475.248 766.29 477.198 765.389 478.387 763.619C484.305 754.817 492.458 756.354 496.714 768.315C505.806 773.349 505.894 781.699 500.315 789.729C496.766 794.837 496.278 801.75 493.164 807.219C493.484 807.669 493.817 808.105 494.138 808.555C500.013 816.823 505.094 825.709 509.378 835.045C508.168 824.67 509.955 812.17 513.002 804.112C516.471 794.932 522.972 787.2 528.698 779.263C535.575 769.73 549.677 773.89 550.889 785.975C550.901 786.092 550.912 786.209 550.923 786.326C550.073 786.852 549.24 787.412 548.426 788.002C543.784 791.37 545.388 799.265 550.888 800.196L551.013 800.217C550.705 803.578 550.18 806.91 549.411 810.186C556.756 841.35 540.899 852.701 518.257 853.211C517.757 853.492 517.27 853.773 516.77 854.04C519.064 861.126 520.897 868.396 522.255 875.763C523.472 882.273 524.318 888.853 524.792 895.461C525.382 903.799 525.331 912.179 524.69 920.503L524.728 920.208C526.356 911.04 530.893 902.478 537.48 896.544C547.293 887.7 561.156 884.444 571.743 877.335C576.839 873.913 583.369 878.335 582.48 884.817L582.436 885.127C580.86 885.83 579.322 886.646 577.836 887.56C576.985 888.086 576.152 888.645 575.338 889.236C570.696 892.604 572.301 900.499 577.801 901.43L577.925 901.451C578.015 901.465 578.092 901.479 578.182 901.493C575.478 908.537 571.71 915.076 566.994 920.714C562.401 947.919 542.676 950.5 521.576 942.577H521.563C519.256 953.601 515.886 964.371 511.554 974.635H475.799C475.671 974.199 475.555 973.749 475.44 973.313C478.746 973.538 482.078 973.327 485.333 972.666C482.681 969.095 480.028 965.495 477.375 961.924C477.311 961.854 477.26 961.784 477.208 961.713C475.863 959.886 474.504 958.072 473.159 956.244L473.158 956.242C473.074 950.631 473.688 945.037 474.903 939.61Z" fill="#F2F2F2"/>
<path d="M0 975.41C0 976.846 1.05167 978 2.36128 978H802.557C803.867 978 804.918 976.846 804.918 975.41C804.918 973.973 803.867 972.819 802.557 972.819H2.36128C1.05167 972.819 0 973.973 0 975.41Z" fill="#CCCCCC"/>
<path d="M885.305 60.9529H429.871C416.367 60.9529 405.386 73.0004 405.386 87.8164V271.37C405.386 286.186 416.367 298.234 429.871 298.234H885.305C898.809 298.234 909.79 286.186 909.79 271.37V87.8164C909.79 73.0004 898.809 60.9529 885.305 60.9529Z" fill="#F4B13D"/>
<path d="M885.305 60.9529H429.871C416.367 60.9529 405.386 73.0004 405.386 87.8164V271.37C405.386 286.186 416.367 298.234 429.871 298.234H885.305C898.809 298.234 909.79 286.186 909.79 271.37V87.8164C909.79 73.0004 898.809 60.9529 885.305 60.9529ZM907.215 271.37C907.215 284.632 897.393 295.409 885.305 295.409H429.871C417.783 295.409 407.96 284.632 407.96 271.37V87.8164C407.96 74.5541 417.783 63.7776 429.871 63.7776H885.305C897.393 63.7776 907.215 74.5541 907.215 87.8164V271.37Z" fill="#3F3D56"/>
<path d="M859.973 171.974H455.203C451.367 171.974 448.258 175.385 448.258 179.593C448.258 183.801 451.367 187.212 455.203 187.212H859.973C863.809 187.212 866.918 183.801 866.918 179.593C866.918 175.385 863.809 171.974 859.973 171.974Z" fill="#361B14"/>
<path d="M134.829 392.757L130.772 419.26L166.746 515.269L186.048 504.382L167.262 414.537L164.561 380.25L134.829 392.757Z" fill="#A0616A"/>
<path d="M174.54 243.656C174.54 243.656 155.705 233.646 141.089 267.469C126.474 301.291 128.284 375.473 128.284 375.473C128.284 375.473 122.962 381.033 126.34 384.925C129.719 388.818 132.868 394.995 129.422 402.116C127.606 405.869 123.402 413.211 130.286 415.297C137.17 417.383 169.37 407.529 169.37 407.529C169.37 407.529 181.411 401.611 174.569 397.626C167.728 393.641 177.363 369.532 177.363 369.532L185.325 299.891L174.54 243.656Z" fill="#FDE4D3"/>
<path d="M189.329 551.95C196.889 549.403 199.848 536.014 195.938 522.045C192.028 508.075 182.73 498.816 175.17 501.363C167.61 503.91 164.651 517.299 168.56 531.268C172.47 545.238 181.769 554.497 189.329 551.95Z" fill="#A0616A"/>
<path d="M367.623 963.425L385.651 958.115L375.568 879.294L348.959 887.13L367.623 963.425Z" fill="#A0616A"/>
<path d="M429.283 944.792C430.098 945.664 431.213 948.924 431.508 950.131C432.415 953.838 430.41 957.651 427.031 958.645L371.197 975.082C368.891 975.761 366.521 974.261 365.902 971.731L365.278 969.181C365.278 969.181 360.642 962.329 364.018 951.207C364.018 951.207 372.895 956.524 380.622 941.829L382.222 934.722L409.19 946.174L422.098 944.183C424.922 943.747 427.241 942.607 429.283 944.792Z" fill="#2F2E41"/>
<path d="M190.9 962.97L209.567 962.968L218.446 883.973L190.896 883.975L190.9 962.97Z" fill="#A0616A"/>
<path d="M254.855 962.506C255.436 963.58 255.743 967.046 255.743 968.295C255.743 972.134 252.906 975.246 249.407 975.246H191.598C189.211 975.246 187.276 973.123 187.276 970.504V967.863C187.276 967.863 184.416 959.927 190.304 950.145C190.304 950.145 197.621 957.805 208.556 945.808L211.78 939.399L235.121 958.128L248.059 959.875C250.889 960.257 253.399 959.815 254.855 962.506Z" fill="#2F2E41"/>
<path d="M315.131 492.423L364.217 724.549L387.914 912.107L350.676 917.678L247.427 598.273L223.73 917.678L181.415 921.392C181.415 921.392 147.563 542.562 162.796 496.137L315.131 492.423Z" fill="#2F2E41"/>
<path d="M373.558 217.938L390.494 198.523L409.943 96.9346L388.403 94.0323L357.898 179.921L342.56 209.942L373.558 217.938Z" fill="#A0616A"/>
<path d="M264.311 316.748C264.311 316.748 280.162 348.813 309.581 329.857C339 310.901 370.114 236.269 370.114 236.269C370.114 236.269 376.327 217.296 382.825 213.533C386.251 211.55 395.064 209.411 390.44 203.44C385.816 197.469 352.563 184.416 352.563 184.416C352.563 184.416 339.573 181.883 343.188 189.399C346.804 196.915 334.93 192.259 336.129 200.213C337.327 208.167 326.481 210.908 326.481 210.908L264.311 316.748Z" fill="#FDE4D3"/>
<path d="M416.642 82.5844C420.567 68.6201 417.623 55.227 410.065 52.6702C402.508 50.1133 393.2 59.3608 389.275 73.3251C385.35 87.2894 388.294 100.682 395.851 103.239C403.409 105.796 412.717 96.5487 416.642 82.5844Z" fill="#A0616A"/>
<path d="M266.416 205.658H220.073L218.197 221.689C218.197 221.689 159.751 239.323 161.212 248.941C162.673 258.56 171.44 418.868 171.44 418.868L164.134 499.022C164.134 499.022 295.639 559.939 316.095 487.8L305.867 404.44C305.867 404.44 330.707 261.766 324.862 255.354C319.018 248.941 270.799 223.292 270.799 223.292L266.416 205.658Z" fill="#FDE4D3"/>
<path d="M239.497 205.858C262.47 205.858 281.093 185.426 281.093 160.222C281.093 135.017 262.47 114.585 239.497 114.585C216.524 114.585 197.901 135.017 197.901 160.222C197.901 185.426 216.524 205.858 239.497 205.858Z" fill="#A0616A"/>
<path d="M270.302 141.449C275.617 140.956 280.932 140.463 286.246 139.971C284.419 139.051 282.517 138.067 281.3 136.313C280.083 134.558 279.831 131.785 281.301 130.282C283.019 128.525 285.865 129.456 287.743 131.003C286.709 125.08 283.486 119.653 278.966 116.222C273.444 112.031 259.783 117.029 253.125 116.067C245.444 114.956 244.485 107.771 236.804 106.661C233.909 106.243 230.651 105.927 228.374 107.934C225.849 110.159 225.566 114.367 223.338 116.946C220.157 120.629 214.706 119.543 210.179 120.579C203.767 122.047 198.934 128.214 196.702 134.97C194.47 141.726 194.388 149.073 194.331 156.259C194.267 164.312 194.244 173.634 199.553 179.196C202.787 182.585 211.597 194.211 212.549 199.005C213.226 202.409 240.791 206.556 246.766 206.368L267.129 199.005C269.131 189.336 265.82 170.21 261.062 161.781C262.629 164.052 269.875 170.888 270.983 168.312C272.091 165.736 271.588 157.663 272.967 155.251C274.708 152.205 267.038 141.752 270.302 141.449Z" fill="#2F2E41"/>
<path d="M514.915 164H506.149V139.273H514.987C517.474 139.273 519.616 139.768 521.411 140.758C523.205 141.74 524.586 143.152 525.552 144.996C526.526 146.839 527.013 149.045 527.013 151.612C527.013 154.188 526.526 156.402 525.552 158.253C524.586 160.104 523.197 161.525 521.386 162.515C519.583 163.505 517.426 164 514.915 164ZM511.377 159.521H514.697C516.243 159.521 517.543 159.247 518.597 158.7C519.66 158.144 520.457 157.287 520.988 156.128C521.527 154.961 521.797 153.455 521.797 151.612C521.797 149.785 521.527 148.292 520.988 147.133C520.457 145.974 519.664 145.121 518.609 144.573C517.555 144.026 516.255 143.752 514.71 143.752H511.377V159.521ZM536.077 164.35C534.894 164.35 533.84 164.145 532.914 163.734C531.988 163.316 531.256 162.7 530.716 161.887C530.185 161.066 529.92 160.044 529.92 158.82C529.92 157.79 530.109 156.925 530.487 156.224C530.865 155.524 531.381 154.961 532.032 154.534C532.684 154.107 533.425 153.786 534.254 153.568C535.091 153.351 535.969 153.198 536.886 153.109C537.965 152.997 538.834 152.892 539.494 152.795C540.154 152.691 540.633 152.538 540.931 152.337C541.229 152.135 541.378 151.838 541.378 151.443V151.371C541.378 150.606 541.136 150.014 540.653 149.596C540.178 149.177 539.502 148.968 538.625 148.968C537.699 148.968 536.963 149.173 536.415 149.584C535.868 149.986 535.506 150.493 535.329 151.105L530.572 150.719C530.813 149.592 531.288 148.618 531.996 147.797C532.705 146.968 533.618 146.332 534.737 145.889C535.864 145.438 537.168 145.213 538.649 145.213C539.679 145.213 540.665 145.334 541.607 145.575C542.557 145.817 543.398 146.191 544.131 146.698C544.871 147.205 545.455 147.857 545.881 148.654C546.308 149.443 546.521 150.389 546.521 151.491V164H541.643V161.428H541.498C541.201 162.008 540.802 162.519 540.303 162.962C539.804 163.396 539.204 163.738 538.504 163.988C537.804 164.229 536.995 164.35 536.077 164.35ZM537.55 160.8C538.307 160.8 538.975 160.652 539.555 160.354C540.134 160.048 540.589 159.637 540.919 159.122C541.249 158.607 541.414 158.023 541.414 157.371V155.403C541.253 155.508 541.032 155.605 540.75 155.693C540.476 155.774 540.166 155.85 539.82 155.923C539.474 155.987 539.128 156.047 538.782 156.104C538.436 156.152 538.122 156.196 537.84 156.237C537.236 156.325 536.709 156.466 536.258 156.659C535.808 156.852 535.457 157.114 535.208 157.444C534.958 157.766 534.834 158.168 534.834 158.651C534.834 159.352 535.087 159.887 535.594 160.257C536.109 160.619 536.761 160.8 537.55 160.8ZM560.376 145.455V149.318H549.208V145.455H560.376ZM551.743 141.011H556.887V158.301C556.887 158.776 556.959 159.146 557.104 159.412C557.249 159.67 557.45 159.851 557.708 159.955C557.973 160.06 558.279 160.112 558.625 160.112C558.867 160.112 559.108 160.092 559.35 160.052C559.591 160.004 559.776 159.967 559.905 159.943L560.714 163.771C560.456 163.851 560.094 163.944 559.627 164.048C559.16 164.161 558.593 164.229 557.925 164.254C556.685 164.302 555.599 164.137 554.665 163.759C553.739 163.38 553.019 162.793 552.504 161.996C551.989 161.199 551.735 160.193 551.743 158.977V141.011ZM569.015 164.35C567.831 164.35 566.777 164.145 565.851 163.734C564.926 163.316 564.193 162.7 563.654 161.887C563.123 161.066 562.857 160.044 562.857 158.82C562.857 157.79 563.046 156.925 563.425 156.224C563.803 155.524 564.318 154.961 564.97 154.534C565.622 154.107 566.363 153.786 567.192 153.568C568.029 153.351 568.906 153.198 569.824 153.109C570.902 152.997 571.772 152.892 572.432 152.795C573.092 152.691 573.571 152.538 573.868 152.337C574.166 152.135 574.315 151.838 574.315 151.443V151.371C574.315 150.606 574.074 150.014 573.591 149.596C573.116 149.177 572.44 148.968 571.562 148.968C570.637 148.968 569.9 149.173 569.353 149.584C568.805 149.986 568.443 150.493 568.266 151.105L563.509 150.719C563.751 149.592 564.225 148.618 564.934 147.797C565.642 146.968 566.556 146.332 567.675 145.889C568.801 145.438 570.105 145.213 571.586 145.213C572.617 145.213 573.603 145.334 574.545 145.575C575.494 145.817 576.336 146.191 577.068 146.698C577.809 147.205 578.392 147.857 578.819 148.654C579.245 149.443 579.459 150.389 579.459 151.491V164H574.581V161.428H574.436C574.138 162.008 573.74 162.519 573.241 162.962C572.742 163.396 572.142 163.738 571.442 163.988C570.741 164.229 569.932 164.35 569.015 164.35ZM570.488 160.8C571.244 160.8 571.912 160.652 572.492 160.354C573.072 160.048 573.526 159.637 573.856 159.122C574.186 158.607 574.351 158.023 574.351 157.371V155.403C574.19 155.508 573.969 155.605 573.687 155.693C573.414 155.774 573.104 155.85 572.758 155.923C572.412 155.987 572.065 156.047 571.719 156.104C571.373 156.152 571.059 156.196 570.778 156.237C570.174 156.325 569.647 156.466 569.196 156.659C568.745 156.852 568.395 157.114 568.145 157.444C567.896 157.766 567.771 158.168 567.771 158.651C567.771 159.352 568.025 159.887 568.532 160.257C569.047 160.619 569.699 160.8 570.488 160.8ZM613.232 147.93H607.944C607.847 147.246 607.65 146.638 607.352 146.107C607.054 145.567 606.672 145.108 606.205 144.73C605.738 144.352 605.199 144.062 604.587 143.861C603.984 143.66 603.328 143.559 602.619 143.559C601.339 143.559 600.225 143.877 599.275 144.513C598.325 145.141 597.589 146.058 597.065 147.266C596.542 148.465 596.281 149.922 596.281 151.636C596.281 153.399 596.542 154.88 597.065 156.08C597.597 157.279 598.337 158.184 599.287 158.796C600.237 159.408 601.335 159.714 602.583 159.714C603.283 159.714 603.931 159.621 604.527 159.436C605.131 159.251 605.666 158.981 606.133 158.627C606.6 158.265 606.986 157.826 607.292 157.311C607.606 156.796 607.823 156.208 607.944 155.548L613.232 155.572C613.095 156.707 612.753 157.802 612.206 158.857C611.667 159.903 610.938 160.841 610.021 161.67C609.111 162.491 608.024 163.143 606.761 163.626C605.505 164.101 604.084 164.338 602.499 164.338C600.293 164.338 598.321 163.839 596.582 162.841C594.852 161.843 593.483 160.398 592.477 158.506C591.479 156.615 590.98 154.325 590.98 151.636C590.98 148.94 591.487 146.646 592.501 144.754C593.516 142.863 594.892 141.422 596.631 140.432C598.369 139.434 600.325 138.935 602.499 138.935C603.931 138.935 605.259 139.136 606.483 139.538C607.714 139.941 608.805 140.528 609.755 141.301C610.705 142.066 611.478 143.004 612.073 144.114C612.677 145.225 613.063 146.497 613.232 147.93ZM616.885 164V145.455H621.871V148.69H622.064C622.402 147.539 622.97 146.67 623.767 146.082C624.564 145.487 625.481 145.189 626.52 145.189C626.777 145.189 627.055 145.205 627.353 145.237C627.65 145.269 627.912 145.314 628.137 145.37V149.934C627.896 149.862 627.562 149.797 627.135 149.741C626.709 149.684 626.318 149.656 625.964 149.656C625.208 149.656 624.531 149.821 623.936 150.151C623.348 150.473 622.881 150.924 622.535 151.504C622.197 152.083 622.028 152.751 622.028 153.508V164H616.885ZM638.385 164.362C636.477 164.362 634.835 163.976 633.459 163.203C632.091 162.422 631.036 161.32 630.296 159.895C629.555 158.462 629.185 156.768 629.185 154.812C629.185 152.904 629.555 151.23 630.296 149.789C631.036 148.348 632.079 147.225 633.423 146.42C634.775 145.616 636.361 145.213 638.18 145.213C639.403 145.213 640.542 145.41 641.597 145.805C642.659 146.191 643.585 146.775 644.374 147.555C645.171 148.336 645.79 149.318 646.233 150.501C646.676 151.677 646.897 153.053 646.897 154.631V156.043H631.237V152.856H642.056C642.056 152.115 641.895 151.459 641.573 150.888C641.251 150.316 640.804 149.87 640.232 149.548C639.669 149.218 639.013 149.053 638.264 149.053C637.484 149.053 636.791 149.234 636.188 149.596C635.592 149.95 635.125 150.429 634.787 151.033C634.449 151.628 634.276 152.292 634.268 153.025V156.055C634.268 156.973 634.437 157.766 634.775 158.434C635.121 159.102 635.608 159.617 636.236 159.979C636.864 160.342 637.608 160.523 638.47 160.523C639.041 160.523 639.564 160.442 640.039 160.281C640.514 160.12 640.921 159.879 641.259 159.557C641.597 159.235 641.854 158.84 642.031 158.374L646.789 158.688C646.547 159.83 646.052 160.829 645.303 161.682C644.563 162.527 643.605 163.187 642.43 163.662C641.263 164.129 639.914 164.362 638.385 164.362ZM655.542 164.35C654.359 164.35 653.304 164.145 652.379 163.734C651.453 163.316 650.721 162.7 650.181 161.887C649.65 161.066 649.384 160.044 649.384 158.82C649.384 157.79 649.574 156.925 649.952 156.224C650.33 155.524 650.845 154.961 651.497 154.534C652.149 154.107 652.89 153.786 653.719 153.568C654.556 153.351 655.433 153.198 656.351 153.109C657.43 152.997 658.299 152.892 658.959 152.795C659.619 152.691 660.098 152.538 660.396 152.337C660.694 152.135 660.843 151.838 660.843 151.443V151.371C660.843 150.606 660.601 150.014 660.118 149.596C659.643 149.177 658.967 148.968 658.09 148.968C657.164 148.968 656.427 149.173 655.88 149.584C655.333 149.986 654.971 150.493 654.794 151.105L650.036 150.719C650.278 149.592 650.753 148.618 651.461 147.797C652.169 146.968 653.083 146.332 654.202 145.889C655.329 145.438 656.633 145.213 658.114 145.213C659.144 145.213 660.13 145.334 661.072 145.575C662.022 145.817 662.863 146.191 663.595 146.698C664.336 147.205 664.919 147.857 665.346 148.654C665.773 149.443 665.986 150.389 665.986 151.491V164H661.108V161.428H660.963C660.665 162.008 660.267 162.519 659.768 162.962C659.269 163.396 658.669 163.738 657.969 163.988C657.269 164.229 656.46 164.35 655.542 164.35ZM657.015 160.8C657.772 160.8 658.44 160.652 659.019 160.354C659.599 160.048 660.054 159.637 660.384 159.122C660.714 158.607 660.879 158.023 660.879 157.371V155.403C660.718 155.508 660.496 155.605 660.215 155.693C659.941 155.774 659.631 155.85 659.285 155.923C658.939 155.987 658.593 156.047 658.247 156.104C657.901 156.152 657.587 156.196 657.305 156.237C656.701 156.325 656.174 156.466 655.723 156.659C655.272 156.852 654.922 157.114 654.673 157.444C654.423 157.766 654.298 158.168 654.298 158.651C654.298 159.352 654.552 159.887 655.059 160.257C655.574 160.619 656.226 160.8 657.015 160.8ZM679.841 145.455V149.318H668.672V145.455H679.841ZM671.208 141.011H676.351V158.301C676.351 158.776 676.424 159.146 676.569 159.412C676.714 159.67 676.915 159.851 677.172 159.955C677.438 160.06 677.744 160.112 678.09 160.112C678.331 160.112 678.573 160.092 678.814 160.052C679.056 160.004 679.241 159.967 679.37 159.943L680.179 163.771C679.921 163.851 679.559 163.944 679.092 164.048C678.625 164.161 678.058 164.229 677.39 164.254C676.15 164.302 675.064 164.137 674.13 163.759C673.204 163.38 672.484 162.793 671.969 161.996C671.453 161.199 671.2 160.193 671.208 158.977V141.011ZM683.191 164V145.455H688.335V164H683.191ZM685.775 143.064C685.01 143.064 684.354 142.81 683.807 142.303C683.268 141.788 682.998 141.172 682.998 140.456C682.998 139.748 683.268 139.14 683.807 138.633C684.354 138.118 685.01 137.86 685.775 137.86C686.54 137.86 687.192 138.118 687.731 138.633C688.278 139.14 688.552 139.748 688.552 140.456C688.552 141.172 688.278 141.788 687.731 142.303C687.192 142.81 686.54 143.064 685.775 143.064ZM700.834 164.362C698.959 164.362 697.337 163.964 695.968 163.167C694.608 162.362 693.558 161.243 692.817 159.81C692.077 158.37 691.706 156.699 691.706 154.8C691.706 152.884 692.077 151.21 692.817 149.777C693.558 148.336 694.608 147.217 695.968 146.42C697.337 145.616 698.959 145.213 700.834 145.213C702.71 145.213 704.328 145.616 705.688 146.42C707.056 147.217 708.111 148.336 708.851 149.777C709.592 151.21 709.962 152.884 709.962 154.8C709.962 156.699 709.592 158.37 708.851 159.81C708.111 161.243 707.056 162.362 705.688 163.167C704.328 163.964 702.71 164.362 700.834 164.362ZM700.858 160.378C701.712 160.378 702.424 160.136 702.995 159.653C703.567 159.162 703.998 158.494 704.287 157.649C704.585 156.804 704.734 155.842 704.734 154.763C704.734 153.685 704.585 152.723 704.287 151.878C703.998 151.033 703.567 150.365 702.995 149.874C702.424 149.383 701.712 149.137 700.858 149.137C699.997 149.137 699.273 149.383 698.685 149.874C698.105 150.365 697.667 151.033 697.369 151.878C697.079 152.723 696.934 153.685 696.934 154.763C696.934 155.842 697.079 156.804 697.369 157.649C697.667 158.494 698.105 159.162 698.685 159.653C699.273 160.136 699.997 160.378 700.858 160.378ZM718.45 153.278V164H713.306V145.455H718.208V148.727H718.426C718.836 147.648 719.525 146.795 720.49 146.167C721.456 145.531 722.627 145.213 724.004 145.213C725.292 145.213 726.415 145.495 727.373 146.058C728.33 146.622 729.075 147.427 729.606 148.473C730.137 149.511 730.403 150.751 730.403 152.192V164H725.26V153.109C725.268 151.974 724.978 151.089 724.39 150.453C723.803 149.809 722.994 149.487 721.963 149.487C721.271 149.487 720.659 149.636 720.128 149.934C719.605 150.232 719.194 150.666 718.897 151.238C718.607 151.801 718.458 152.482 718.45 153.278ZM741.481 143.583V139.273H761.789V143.583H754.219V164H749.051V143.583H741.481ZM770.727 164.362C768.851 164.362 767.229 163.964 765.861 163.167C764.501 162.362 763.45 161.243 762.71 159.81C761.969 158.37 761.599 156.699 761.599 154.8C761.599 152.884 761.969 151.21 762.71 149.777C763.45 148.336 764.501 147.217 765.861 146.42C767.229 145.616 768.851 145.213 770.727 145.213C772.602 145.213 774.22 145.616 775.58 146.42C776.949 147.217 778.003 148.336 778.744 149.777C779.484 151.21 779.855 152.884 779.855 154.8C779.855 156.699 779.484 158.37 778.744 159.81C778.003 161.243 776.949 162.362 775.58 163.167C774.22 163.964 772.602 164.362 770.727 164.362ZM770.751 160.378C771.604 160.378 772.316 160.136 772.888 159.653C773.459 159.162 773.89 158.494 774.18 157.649C774.478 156.804 774.627 155.842 774.627 154.763C774.627 153.685 774.478 152.723 774.18 151.878C773.89 151.033 773.459 150.365 772.888 149.874C772.316 149.383 771.604 149.137 770.751 149.137C769.89 149.137 769.165 149.383 768.578 149.874C767.998 150.365 767.559 151.033 767.262 151.878C766.972 152.723 766.827 153.685 766.827 154.763C766.827 155.842 766.972 156.804 767.262 157.649C767.559 158.494 767.998 159.162 768.578 159.653C769.165 160.136 769.89 160.378 770.751 160.378ZM791.578 164.362C789.703 164.362 788.081 163.964 786.713 163.167C785.352 162.362 784.302 161.243 783.561 159.81C782.821 158.37 782.45 156.699 782.45 154.8C782.45 152.884 782.821 151.21 783.561 149.777C784.302 148.336 785.352 147.217 786.713 146.42C788.081 145.616 789.703 145.213 791.578 145.213C793.454 145.213 795.072 145.616 796.432 146.42C797.8 147.217 798.855 148.336 799.595 149.777C800.336 151.21 800.706 152.884 800.706 154.8C800.706 156.699 800.336 158.37 799.595 159.81C798.855 161.243 797.8 162.362 796.432 163.167C795.072 163.964 793.454 164.362 791.578 164.362ZM791.602 160.378C792.456 160.378 793.168 160.136 793.74 159.653C794.311 159.162 794.742 158.494 795.031 157.649C795.329 156.804 795.478 155.842 795.478 154.763C795.478 153.685 795.329 152.723 795.031 151.878C794.742 151.033 794.311 150.365 793.74 149.874C793.168 149.383 792.456 149.137 791.602 149.137C790.741 149.137 790.017 149.383 789.429 149.874C788.85 150.365 788.411 151.033 788.113 151.878C787.823 152.723 787.678 153.685 787.678 154.763C787.678 155.842 787.823 156.804 788.113 157.649C788.411 158.494 788.85 159.162 789.429 159.653C790.017 160.136 790.741 160.378 791.602 160.378ZM809.194 139.273V164H804.051V139.273H809.194Z" fill="#361B14"/>
</g>
</g>
<defs>
<filter id="filter0_d_8_24" x="-4" y="52.2453" width="917.79" height="933.755" filterUnits="userSpaceOnUse" color-interpolation-filters="sRGB">
<feFlood flood-opacity="0" result="BackgroundImageFix"/>
<feColorMatrix in="SourceAlpha" type="matrix" values="0 0 0 0 0 0 0 0 0 0 0 0 0 0 0 0 0 0 127 0" result="hardAlpha"/>
<feOffset dy="4"/>
<feGaussianBlur stdDeviation="2"/>
<feComposite in2="hardAlpha" operator="out"/>
<feColorMatrix type="matrix" values="0 0 0 0 0 0 0 0 0 0 0 0 0 0 0 0 0 0 0.25 0"/>
<feBlend mode="normal" in2="BackgroundImageFix" result="effect1_dropShadow_8_24"/>
<feBlend mode="normal" in="SourceGraphic" in2="effect1_dropShadow_8_24" result="shape"/>
</filter>
<clipPath id="clip0_8_24">
<rect width="1120" height="978" fill="white"/>
</clipPath>
</defs>
</svg>
